<?xml version="1.0" encoding="utf-8"?>
<!-- Generator: Adobe Illustrator 25.2.3, SVG Export Plug-In . SVG Version: 6.00 Build 0)  -->
<svg version="1.1" xmlns="http://www.w3.org/2000/svg" xmlns:xlink="http://www.w3.org/1999/xlink" x="0px" y="0px"
	 viewBox="0 0 600 404" style="enable-background:new 0 0 600 404;" xml:space="preserve">
<style type="text/css">
	.st0{fill:#FFFFFF;}
	.st1{fill:none;stroke:#000000;stroke-width:1.5;stroke-miterlimit:10;}
	.st2{font-family:sans-serif; font-weight: 600;}
	.st3{font-size:20px;}
</style>
<g id="BKGD">
	<g>
		<path class="st0" d="M15,403.75c-8.13,0-14.75-6.62-14.75-14.75V15C0.25,6.87,6.87,0.25,15,0.25h570
			c8.13,0,14.75,6.62,14.75,14.75v374c0,8.13-6.62,14.75-14.75,14.75H15z"/>
		<path d="M585,0.5c8,0,14.5,6.5,14.5,14.5v374c0,8-6.5,14.5-14.5,14.5H15c-8,0-14.5-6.5-14.5-14.5V15C0.5,7,7,0.5,15,0.5H585
			 M585,0H15C6.72,0,0,6.72,0,15v374c0,8.28,6.72,15,15,15h570c8.28,0,15-6.72,15-15V15C600,6.72,593.28,0,585,0L585,0z"/>
	</g>
</g>
<g id="GO_x5F_WW">
	<g>
		<line class="st1" x1="300.5" y1="202" x2="300.5" y2="382"/>
	</g>
	<g>
		<line class="st1" x1="300.5" y1="202" x2="120.5" y2="202"/>
	</g>
	<g>
		<line class="st1" x1="301" y1="22" x2="301" y2="202"/>
	</g>
	<g>
		<line class="st1" x1="481" y1="202" x2="301" y2="202"/>
	</g>
	<g>
		<ellipse class="st0" cx="300" cy="202" rx="68.5" ry="53.5"/>
		<path d="M300,150c36.94,0,67,23.33,67,52s-30.06,52-67,52s-67-23.33-67-52S263.06,150,300,150 M300,147c-38.66,0-70,24.62-70,55
			s31.34,55,70,55s70-24.62,70-55S338.66,147,300,147L300,147z"/>
	</g>
	<g>
		<ellipse class="st0" cx="300" cy="342" rx="69.5" ry="44.5"/>
		<path d="M300,298c38.05,0,69,19.74,69,44s-30.95,44-69,44s-69-19.74-69-44S261.95,298,300,298 M300,297c-38.66,0-70,20.15-70,45
			s31.34,45,70,45s70-20.15,70-45S338.66,297,300,297L300,297z"/>
	</g>
	<g>
		<ellipse class="st0" cx="300" cy="62" rx="69.5" ry="44.5"/>
		<path d="M300,18c38.05,0,69,19.74,69,44s-30.95,44-69,44s-69-19.74-69-44S261.95,18,300,18 M300,17c-38.66,0-70,20.15-70,45
			s31.34,45,70,45s70-20.15,70-45S338.66,17,300,17L300,17z"/>
	</g>
	<g>
		<ellipse class="st0" cx="121" cy="202" rx="69.5" ry="44.5"/>
		<path d="M121,158c38.05,0,69,19.74,69,44s-30.95,44-69,44s-69-19.74-69-44S82.95,158,121,158 M121,157c-38.66,0-70,20.15-70,45
			s31.34,45,70,45s70-20.15,70-45S159.66,157,121,157L121,157z"/>
	</g>
	<g>
		<ellipse class="st0" cx="481" cy="202" rx="69.5" ry="44.5"/>
		<path d="M481,158c38.05,0,69,19.74,69,44s-30.95,44-69,44s-69-19.74-69-44S442.95,158,481,158 M481,157c-38.66,0-70,20.15-70,45
			s31.34,45,70,45s70-20.15,70-45S519.66,157,481,157L481,157z"/>
	</g>
</g>
<g id="TEXT">
	<text transform="matrix(1 0 0 1 266.0293 207.0898)" class="st2 st3">design</text>
	<text transform="matrix(1 0 0 1 252.5293 346.9863)" class="st2 st3">invention</text>
	<text transform="matrix(1 0 0 1 268.2593 68.9863)" class="st2 st3">invent</text>
	<text transform="matrix(1 0 0 1 78.729 207.0898)" class="st2 st3">improve</text>
	<text transform="matrix(1 0 0 1 454.6987 207.0898)" class="st2 st3">solve</text>
</g>
</svg>
